<svg xmlns="http://www.w3.org/2000/svg" enable-background="new 0 0 47.5 47.5" viewBox="0 0 47.5 47.5" id="department"><defs><clipPath id="a"><path d="M0 38h38V0H0v38Z"></path></clipPath></defs><g clip-path="url(#a)" transform="matrix(1.25 0 0 -1.25 0 47.5)"><path fill="#ffcc4d" d="M0 0a2 2 0 0 1 2-2h18a2 2 0 0 1 2 2v20a2 2 0 0 1-2 2H2a2 2 0 0 1-2-2V0Z" transform="translate(15 3)"></path><path fill="#bcbec0" d="M0 0h-14v-2H2a2 2 0 0 1-2 2" transform="translate(35 25)"></path><path fill="#55acee" d="M21 1h14v20H21V1Z"></path><path fill="#ffe8b6" d="M0 0h-16a2 2 0 0 1-2-2v-32a2 2 0 0 1 2-2H2v34a2 2 0 0 1-2 2" transform="translate(19 37)"></path><path fill="#bcbec0" d="M0 0h-16a2 2 0 0 1-2-2H2a2 2 0 0 1-2 2" transform="translate(19 37)"></path><path fill="#55acee" d="M3 11h16v4H3v-4zM3 17h16v4H3v-4zM3 23h16v4H3v-4zM3 29h16v4H3v-4zM3 1h16v8H3V1Z"></path><path fill="#3b88c3" d="M7 1h8v4H7V1ZM24 1h8v4h-8V1z"></path><path fill="#ffcc4d" d="M36 9H21v2h15V9zM36 15H21v2h15v-2z"></path><path fill="#dd2e44" d="M0 0a2 2 0 0 0-2-2h-10a2 2 0 0 0-2 2v2a2 2 0 0 0 2 2h10a2 2 0 0 0 2-2V0Z" transform="translate(37 30)"></path><path fill="#58595b" d="M29 25h-2v3h2v-3zM33 25h-2v3h2v-3z"></path><path fill="#f4abba" d="M27 30h-2v2h2v-2z"></path><path fill="#fff" d="M29 30h-2v2h2v-2z"></path><path fill="#f4abba" d="M31 30h-2v2h2v-2z"></path><path fill="#fff" d="M33 30h-2v2h2v-2z"></path><path fill="#f4abba" d="M35 30h-2v2h2v-2z"></path></g></svg>