<svg xmlns="http://www.w3.org/2000/svg" enable-background="new 0 0 512 512" version="1" viewBox="0 0 512 512" id="doctor"><path fill="#F79420" d="M329.9,245c-7.8,12.4-17.1,23.5-27.4,32.1c-13.9,11.6-29.7,18.7-46.4,18.7s-32.6-7.1-46.4-18.7
					c-14.4-12-26.7-28.7-36-47.2c-0.8,0.4-1.6,0.8-2.5,1c-9.8,2.5-21-8.6-25.1-24.7c-4-16,0.6-31,10.3-33.5c0,0,0,0,0-0.1
					c0,0,0,0,0,0.1c0,0,40.2-11.9,65.2-58.2C221.6,114.4,319.8,141,329.9,245z"></path><path d="M323.4,241.2c-16,25-42.6,51.4-75,46.5c-32-4.8-54.7-34.8-68.3-61.7c-2-3.9-6.7-4.3-10.3-2.7c-2.8,1.3-6.1-1.3-8.1-3.2
						c-4.1-3.8-6.4-9.2-8-14.4c-1.9-6.3-4.2-23.2,4.7-25.9c4.3-1.3,5.8-5.1,5.2-9.2c0,0,0,0,0-0.1c-4.8,1.3-9.6,2.7-14.5,4
						c0,0,0,0,0,0.1c1.1,3.9,5.3,6.4,9.2,5.2c8.9-2.7,17.4-7.4,25-12.5c18.7-12.3,33.9-29.5,44.7-49.1c-2.8,1.1-5.6,2.3-8.5,3.4
						c1.2,0.3,2.5,0.7,3.7,1.2c1.4,0.5,2.7,1,4.1,1.5c0.8,0.3,1.7,0.6,2.5,1c0.5,0.2,0.9,0.4,1.4,0.6c2,0.8-0.6-0.3,0.6,0.3
						c11.1,4.7,21.7,10.7,31.6,17.7c29.5,20.8,49.8,52.1,56.9,87.8c0.9,4.4,1.5,8.9,1.9,13.4c0.4,4.1,3.1,7.5,7.5,7.5
						c3.8,0,7.9-3.4,7.5-7.5c-4.1-40.2-21.8-76.9-52.5-103.4c-17.1-14.8-37.3-26.6-58.8-33.6c-0.8-0.3-1.6-0.5-2.4-0.7
						c-3.2-0.9-6.9,0.5-8.5,3.4c-9.6,17.5-22.7,32.6-39.3,43.7c-5.1,3.4-10.4,6.4-16,8.9c-0.4,0.2-0.7,0.3-1.1,0.5
						c-1.8,0.8,1.5-0.6-0.1,0.1c-0.8,0.3-1.5,0.6-2.3,0.9c-0.6,0.2-1.3,0.5-1.9,0.7c3.1,1.7,6.2,3.5,9.2,5.2c0,0,0,0,0-0.1
						c-2.7-9.6-15.8-5.3-14.5,4c0,0,0,0,0,0.1c1.7-3.1,3.5-6.2,5.2-9.2c-18.8,5.8-19.4,30.3-14.7,45.9c4.8,15.7,19.8,33.4,37.7,25
						c-3.4-0.9-6.8-1.8-10.3-2.7c15.7,31.1,42.4,63.4,78.8,68.8c38.9,5.8,70.9-23.1,90.4-53.7C341.6,240.6,328.6,233.1,323.4,241.2z
						"></path><path fill="#6FCCDD" d="M366.8,342.9l-28-5.6l0,0l0,0l-21.2-4.2l-8.7-12.7c-1.4-2.1-4-3-6.4-2.4c-0.3,0.1-0.6,0.2-1,0.3
					l-14,46.9h0L256,470.9l-31.6-106.6l-13.6-46c-0.4-0.2-0.8-0.3-1.2-0.4c-2.3-0.5-4.7,0.5-6.1,2.4l-2.9,4.2l0,0l-6,8.6l-7.9,1.6v0
					l-41.3,8.3c-25.1,5-43.1,27-43.1,52.6v103.4h307.7V395.5C409.8,370,391.8,348,366.8,342.9z M186.6,435.9
					c-14.1,0-25.6-11.5-25.6-25.6c0-14.1,11.4-25.6,25.6-25.6c14.1,0,25.6,11.5,25.6,25.6C212.1,424.4,200.7,435.9,186.6,435.9z"></path><path d="M186.6,428.4c-10.1-0.3-17.8-8-18.1-18.1c-0.3-10.1,8.4-17.8,18.1-18.1c10.1-0.3,17.8,8.4,18.1,18.1
						C204.9,420.4,196.2,428.1,186.6,428.4c-9.7,0.3-9.7,15.3,0,15c18.3-0.5,32.6-14.7,33.1-33.1c0.5-18.3-15.5-32.6-33.1-33.1
						c-18.3-0.5-32.6,15.5-33.1,33.1c-0.5,18.3,15.5,32.6,33.1,33.1C196.3,443.6,196.2,428.6,186.6,428.4z"></path><path d="M368.7,335.7c-9.1-1.8-18.2-3.6-27.3-5.5c-2.1-0.4,0.6-0.2,2.6,1.8c-1-1-2.4-1.7-3.8-2c-2.3-0.5-4.5-0.9-6.8-1.4
						c-4.6-0.9-9.3-1.9-13.9-2.8c1.5,1.1,3,2.3,4.5,3.4c-4-5.8-7.7-13.3-13.6-17.3c-5.1-3.5-14.4-1.8-16.3,4.5c-0.6,2-1.2,4-1.8,6.1
						c-4,13.5-8.1,27.1-12.1,40.6c2.4-1.8,4.8-3.7,7.2-5.5c0,0,0,0,0,0c-3.4,0-6.3,2.3-7.2,5.5c-10.5,35.2-21,70.5-31.5,105.7
						c4.8,0,9.6,0,14.5,0c-12.5-42.3-25-84.5-37.6-126.8c-2.6-8.6-5.1-17.2-7.7-25.9c-1.8-6-9.4-7-14.5-5c-4,1.6-6.2,4.8-8.6,8.1
						c-2.3,3.2,2.3-3.2-1,1.4c-0.6,0.9-1.2,1.7-1.8,2.6c-1.4,2-2.8,3.9-4.1,5.9c1.5-1.1,3-2.3,4.5-3.4c-2.6,0.5-5.3,1-7.9,1.6
						c-3.2,0.6-5.5,4.1-5.5,7.2c0,0,0,0,0,0c1.8-2.4,3.7-4.8,5.5-7.2c-12.1,2.4-24.2,4.8-36.3,7.2c-18.9,3.8-34.8,12.8-45.1,29.6
						c-7.4,12.2-8.6,25.6-8.6,39.4c0,14.2,0,28.3,0,42.5c0,17.6,0,35.1,0,52.7c0,4.1,3.4,7.5,7.5,7.5c41,0,82,0,123.1,0
						c56.5,0,113,0,169.5,0c5,0,10.1,0,15.1,0c4.1,0,7.5-3.4,7.5-7.5c0-24.3,0-48.7,0-73c0-10,0-20,0-30c0-21.4-11-40.9-28.9-52.4
						C382.5,339.7,375.6,337.2,368.7,335.7c-9.4-2-13.4,12.4-4,14.5c21.5,4.6,37.6,23,37.6,45.3c0,8.6,0,17.3,0,25.9
						c0,25.7,0,51.5,0,77.2c0,0.1,0,0.2,0,0.3c2.5-2.5,5-5,7.5-7.5c-41,0-82,0-123.1,0c-56.5,0-113,0-169.5,0c-5,0-10.1,0-15.1,0
						c2.5,2.5,5,5,7.5,7.5c0-24.3,0-48.7,0-73c0-10,0-20,0-30c0-19.6,12.2-37.4,30.8-44c7.8-2.8,16.5-3.8,24.5-5.4
						c7.9-1.6,15.7-3.1,23.6-4.7c3.2-0.6,5.5-4.1,5.5-7.2c0,0,0,0,0,0c-1.8,2.4-3.7,4.8-5.5,7.2c2.3-0.5,4.5-0.9,6.8-1.4
						c3.4-0.7,5.1-3,6.9-5.7c1.5-2.2,3-4.3,4.6-6.5c-2.6,3.7,0.4-0.6,1-1.4c0.5-0.7,1-1.5,1.5-2.2c1-1.5-0.9,0.7-0.7,0.7
						c-1.7-1.7-3.5-3.5-5.2-5.2c13.6,46,27.2,91.9,40.9,137.9c1.5,4.9,2.9,9.8,4.4,14.7c2.1,7.2,12.3,7.1,14.5,0
						c10.5-35.2,21-70.5,31.5-105.7c-2.4,1.8-4.8,3.7-7.2,5.5c0,0,0,0,0,0c3.4,0,6.3-2.3,7.2-5.5c4.7-15.6,9.3-31.3,14-46.9
						c-1.7,1.7-3.5,3.5-5.2,5.2c0.3-0.1-1.8-2.3-0.1,0.1c1.1,1.6,2.2,3.3,3.4,4.9c1.7,2.5,3.3,5.7,5.5,7.9c2.3,2.3,5.8,2.4,8.8,3
						c4.2,0.8,8.4,1.7,12.6,2.5c1,0.2,1.9,0.4,2.9,0.6c2.5,0.5-7.1-3.9-1.6-0.7c0.8,0.5,1.3,0.7,2,0.8c2.9,0.6,5.7,1.1,8.6,1.7
						c6.4,1.3,12.8,2.6,19.3,3.8C374.2,352.1,378.2,337.6,368.7,335.7z"></path><path fill="#998675" d="M212.1,410.3c0,14.1-11.4,25.6-25.6,25.6c-14.1,0-25.6-11.5-25.6-25.6c0-14.1,11.4-25.6,25.6-25.6
					C200.7,384.8,212.1,396.2,212.1,410.3z"></path><path d="M204.6 410.3c-.3 10.1-8 17.8-18.1 18.1-10.1.3-17.8-8.4-18.1-18.1-.3-10.1 8.4-17.8 18.1-18.1C196.6 392 204.4 400.6 204.6 410.3c.3 9.7 15.3 9.7 15 0-.5-18.3-14.7-32.6-33.1-33.1-18.3-.5-32.6 15.5-33.1 33.1-.5 18.3 15.5 32.6 33.1 33.1 18.3.5 32.6-15.5 33.1-33.1C219.9 400.6 204.9 400.7 204.6 410.3zM321.6 457.1c-7.2-.3-7.5-6.6-7.5-12.1 0-7.5 0-15 0-22.5 0-4.8 0-9.6 0-14.4 0-10.2 6.5-19.5 16-23.1 10.2-3.8 20.8-.3 27.8 7.6 4.7 5.3 5.5 12.1 5.5 18.8 0 12.7 0 25.4 0 38 0 4.3-3.3 7.4-7.5 7.6-9.6.4-9.7 15.4 0 15 12.2-.6 22.5-9.9 22.5-22.5 0-5.1 0-10.2 0-15.3 0-14.6 2-30.7-4.4-44.2-10.7-22.6-41.6-27.9-60.3-12.5-9.2 7.6-14.3 18.7-14.5 30.6-.1 4.8 0 9.6 0 14.4 0 8.6 0 17.1 0 25.7 0 13.2 9.2 23.3 22.5 23.9C331.3 472.5 331.3 457.5 321.6 457.1L321.6 457.1z"></path><path fill="#998675" d="M327.9,296.4c3-19,3.4-36.1,1.9-51.5c-10-104-108.3-130.5-108.3-130.5c-25,46.3-65.2,58.2-65.2,58.2
					c0,0,0,0,0-0.1c-15.8-65,10.8-82.5,10.8-82.5c7.5-48.8,122.1-84,178.9,10C418.6,220.1,327.9,296.4,327.9,296.4z"></path><path d="M335.2 298.4c7.3-47.5.7-96.2-29.4-134.9-17.4-22.4-41.2-39.8-67.2-50.8-4.9-2.1-9.8-4.1-14.9-5.5-3.2-.9-6.9.5-8.5 3.4-9.6 17.5-22.7 32.6-39.3 43.7-5.1 3.4-10.4 6.4-16 8.9-.4.2-.7.3-1.1.5-1.8.8 1.5-.6-.1.1-.8.3-1.5.6-2.3.9-.6.2-1.3.5-1.9.7 3.1 1.7 6.2 3.5 9.2 5.2-5.4-18.9-7.4-41.4-1-60.2.2-.7.5-1.4.8-2.1.9-2.2-.6 1.2.3-.8.5-1.2 1.1-2.3 1.7-3.4.5-1 1.1-1.9 1.7-2.9.3-.4.6-.8.8-1.2 1.2-1.7-.6.7.2-.3.8-1 1.7-2 2.7-2.9 1.9-1.7-.5.2 0-.1 3.4-2.3 3.5-5.5 4.5-9.1.2-.6 1.4-3.8.9-2.7.6-1.5 1.4-2.9 2.2-4.3 2.9-5.1 6.4-8.8 11.5-13.1 10.1-8.5 24.3-14.1 38.1-17 35.5-7.2 71.7 6.3 96.1 32.6 17.2 18.6 29.2 43.1 36.3 67.2 5.9 19.9 7.9 41.2 4.6 61.8-3.4 21.4-12.2 41.3-24.7 58.9-3.4 4.7-7.3 9.6-12.2 14.7-1.8 1.9-3.6 3.7-5.6 5.4-7.4 6.2 3.3 16.8 10.6 10.6 13.4-11.3 24.1-27.2 32-42.7 18.4-36 20.7-77.1 8.9-115.5-13.7-44.4-42.5-86.7-87.4-103.2-31.2-11.5-68.8-8.4-97.2 9.1-13.9 8.5-26.8 22-29.5 38.7 1.1-1.5 2.3-3 3.4-4.5-7.3 4.9-11.7 13.4-14.8 21.4-3.4 8.8-4.5 18.5-4.7 27.9-.4 13.8 1.5 28.5 5.3 41.8 1.1 3.9 5.3 6.4 9.2 5.2 8.9-2.7 17.4-7.4 25-12.5 18.7-12.3 33.9-29.5 44.7-49.1-2.8 1.1-5.6 2.3-8.5 3.4 1.2.3 2.5.7 3.7 1.2 1.4.5 2.7 1 4.1 1.5.8.3 1.7.6 2.5 1 .5.2.9.4 1.4.6 2 .8-.6-.3.6.3 11.1 4.7 21.7 10.7 31.6 17.7 29.5 20.8 49.8 52.1 56.9 87.8 4.1 20.6 3.4 42.2.3 62.8-.6 4 1 8 5.2 9.2C329.5 304.6 334.5 302.5 335.2 298.4zM336.7 344.6C336.7 344.6 336.7 344.6 336.7 344.6c-1.8-2.4-3.6-4.8-5.5-7.2 0 12.9 0 25.7 0 38.6 0 9.7 15 9.7 15 0 0-12.9 0-25.7 0-38.6 0-3.5-2.3-6.2-5.5-7.2 0 0 0 0 0 0C331.5 327 327.6 341.5 336.7 344.6L336.7 344.6z"></path><g><path fill="#FBB03B" d="M302.4,277V318c-0.3,0.1-0.6,0.2-1,0.3l-14,46.9h0c-28,8.9-50.3,4-63.1-0.9l-13.6-46
			c-0.4-0.2-0.8-0.3-1.2-0.4V277c13.9,11.6,29.7,18.7,46.4,18.7S288.6,288.6,302.4,277z"></path><path d="M294.9,277c0,13.6,0,27.3,0,40.9c1.8-2.4,3.7-4.8,5.5-7.2c-5.3,1.7-6.1,5.4-7.5,10c-1.6,5.4-3.2,10.8-4.8,16.2
				c-2.6,8.8-5.2,17.5-7.8,26.3c2.4-1.8,4.8-3.7,7.2-5.5c-2.5,0-5.1,1.2-7.5,1.9c-3.5,0.9-7,1.6-10.6,2.2c-5.6,0.9-11.4,1-17,0.8
				c-8.9-0.3-17.7-2.4-26-5.5c1.7,1.7,3.5,3.5,5.2,5.2c-2.5-8.3-4.9-16.6-7.4-24.9c-1.6-5.3-3.1-10.6-4.7-15.9c-1.5-5-2.2-9-8-10.8
				c1.8,2.4,3.7,4.8,5.5,7.2c0-13.6,0-27.2,0-40.9c-4.3,1.8-8.5,3.5-12.8,5.3c14.9,12.2,32.2,20.6,51.7,20.9
				c19.4,0.3,37.1-8.9,51.7-20.9c3.2-2.6,2.7-7.9,0-10.6c-3.1-3.1-7.5-2.6-10.6,0c-11.7,9.6-25.8,16.3-41.1,16.5
				c-15.2,0.2-29.6-7.1-41.1-16.5c-4.8-4-12.8-1.7-12.8,5.3c0,13.6,0,27.2,0,40.9c0,3.4,2.3,6.2,5.5,7.2c0.4,0.1,0.8,0.3,1.2,0.4
				c-1.7-1.7-3.5-3.5-5.2-5.2c4.3,14.4,8.5,28.7,12.8,43.1c1.1,3.6,2.1,6.6,6.1,8.1c5.5,2.1,11.2,3.6,17,4.6
				c7.3,1.3,14.7,1.7,22,1.4c4.6-0.2,9.1-0.8,13.6-1.6c2.4-0.4,4.7-0.9,7.1-1.5c1.2-0.3,4.9-1.8,5.4-1.8c3.4,0,6.3-2.3,7.2-5.5
				c4.7-15.6,9.3-31.3,14-46.9c-1.7,1.7-3.5,3.5-5.2,5.2c0.3-0.1,0.6-0.2,1-0.3c3.2-1,5.5-3.8,5.5-7.2c0-13.6,0-27.3,0-40.9
				C309.9,267.4,294.9,267.4,294.9,277z"></path></g><g><path d="M179.1,334.7c0,16.7,0,33.4,0,50.1c0,9.7,15,9.7,15,0c0-16.7,0-33.4,0-50.1C194.1,325,179.1,325,179.1,334.7L179.1,334.7
				z"></path></g></svg>